<?xml version="1.0" encoding="iso-8859-1"?>
<!-- Generator: Adobe Illustrator 19.0.0, SVG Export Plug-In . SVG Version: 6.00 Build 0)  -->
<svg version="1.1" id="Capa_1" xmlns="http://www.w3.org/2000/svg" xmlns:xlink="http://www.w3.org/1999/xlink" x="0px" y="0px"
	 viewBox="0 0 512 512" style="enable-background:new 0 0 512 512;" xml:space="preserve">
<g>
	<g>
		<g>
			<rect x="59" y="310.96" width="15" height="15"/>
			<rect x="109" y="310.96" width="15" height="15"/>
			<rect x="84" y="310.96" width="15" height="15"/>
			<polygon points="284.441,52.126 256,80.568 227.558,52.126 0,52.126 0,139.394 15,139.394 15,67.126 221.345,67.126 248.5,94.28 
				248.5,250.345 263.5,250.345 263.5,94.28 290.654,67.126 497,67.126 497,138.857 512,138.857 512,52.126 			"/>
			<path d="M497,372.538H284.437L263.5,393.475V264.808h-15v128.667l-20.937-20.937H15V154.394H0v305.481h512V153.857h-15V372.538z
				 M15,387.538h206.345l27.155,27.158v1.607H15V387.538z M497,444.875H15v-13.571h482V444.875z M497,394.523H320v15h177v6.78H263.5
				v-1.615l27.15-27.15H497V394.523z"/>
			<path d="M120.699,87.49L120.699,87.49H34.957v73.199h85.742V87.49z M105.699,145.689h-0.001H49.957V102.49h55.742V145.689z"/>
			<path d="M34.957,250.748h85.742v-73.199H34.957V250.748z M49.957,192.548h55.742v43.199H49.957V192.548z"/>
			<path d="M211.509,87.49h-76.711v163.256h76.711V87.49z M196.509,235.748h-46.711V102.49h46.711V235.748z"/>
			<path d="M300.491,347.646h74.202V196.532h-74.202V347.646z M315.491,211.532h44.202v121.115h-44.202V211.532z"/>
			<path d="M477.043,196.532h-85.741v69.387h85.741V196.532z M462.043,250.918h-55.741v-39.387h55.741V250.918z"/>
			<path d="M391.302,347.646h85.741v-68.338h-85.741V347.646z M406.302,294.308h55.741v38.338h-55.741V294.308z"/>
			<path d="M477.043,87.49H300.491v93.456h176.552V87.49z M462.043,165.946H315.491V102.49h146.552V165.946z"/>
			<path d="M34.957,347.646h176.552v-80.041H34.957V347.646z M49.957,282.606h146.552v50.041H49.957V282.606z"/>
			<rect x="49.5" y="394.52" width="15" height="15"/>
			<rect x="24.5" y="394.52" width="15" height="15"/>
			<rect x="74.5" y="394.52" width="129.51" height="15"/>
			<rect x="274.5" y="94.99" width="15" height="15"/>
			<rect x="274.5" y="119.99" width="15" height="15"/>
			<rect x="274.5" y="144.99" width="15" height="151.35"/>
			<rect x="222.17" y="231.22" width="15" height="124.57"/>
			<rect x="160" y="163.12" width="15" height="42"/>
			<rect x="160" y="113.12" width="15" height="15"/>
			<rect x="160" y="138.12" width="15" height="15"/>
			<rect x="360.67" y="110.29" width="41" height="15"/>
			<rect x="411.67" y="110.29" width="15" height="15"/>
			<rect x="436.67" y="110.29" width="15" height="15"/>
			<rect x="336.5" y="226.711" width="15" height="48.4"/>
		</g>
	</g>
</g>
<g>
</g>
<g>
</g>
<g>
</g>
<g>
</g>
<g>
</g>
<g>
</g>
<g>
</g>
<g>
</g>
<g>
</g>
<g>
</g>
<g>
</g>
<g>
</g>
<g>
</g>
<g>
</g>
<g>
</g>
</svg>
