<?xml version="1.0" encoding="iso-8859-1"?>
<!-- Generator: Adobe Illustrator 19.0.0, SVG Export Plug-In . SVG Version: 6.00 Build 0)  -->
<svg version="1.1" id="Layer_1" xmlns="http://www.w3.org/2000/svg" xmlns:xlink="http://www.w3.org/1999/xlink" x="0px" y="0px"
	 viewBox="0 0 512 512" style="enable-background:new 0 0 512 512;" xml:space="preserve">
<g>
	<g>
		<g>
			<path d="M210.24,327.573l24.427-24.427V384c0,5.867,4.8,10.667,10.667,10.667h128c5.867,0,10.667-4.8,10.667-10.667v-80.96
				l24.427,24.427c4.267,4.053,10.987,3.947,15.04-0.213c3.947-4.16,3.947-10.667,0-14.827L380.8,269.76l-64-64
				c-4.16-4.16-10.88-4.16-15.04,0l-64,64l-42.667,42.667c-4.053,4.267-3.947,10.987,0.213,15.04
				C199.573,331.52,206.08,331.52,210.24,327.573z M256,281.707l53.333-53.333l53.333,53.333v91.627H256V281.707z"/>
			<path d="M501.333,128H448V85.333c0-5.867-4.8-10.667-10.667-10.667H219.307l-30.72-29.12c-2.027-1.92-4.587-2.88-7.36-2.88
				H10.667C4.8,42.667,0,47.467,0,53.333V408c0,34.347,28.16,61.333,64,61.333h371.093c40.96,0,76.907-36.267,76.907-77.547v-253.12
				C512,132.8,507.2,128,501.333,128z M106.667,138.667V408c0,23.573-17.493,40-42.667,40c-24.32,0-42.667-17.173-42.667-40V64
				H176.96l30.72,29.12c2.027,1.92,4.587,2.88,7.36,2.88h211.627v32H117.333C111.467,128,106.667,132.8,106.667,138.667z
				 M490.667,391.787c0,29.44-26.56,56.213-55.573,56.213H113.707C122.773,437.44,128,423.68,128,408V149.333h362.667V391.787z"/>
		</g>
	</g>
</g>
<g>
</g>
<g>
</g>
<g>
</g>
<g>
</g>
<g>
</g>
<g>
</g>
<g>
</g>
<g>
</g>
<g>
</g>
<g>
</g>
<g>
</g>
<g>
</g>
<g>
</g>
<g>
</g>
<g>
</g>
</svg>
